<svg id="Capa_1" enable-background="new 0 0 510 510" height="512" viewBox="0 0 510 510" width="512" xmlns="http://www.w3.org/2000/svg"><g><path d="m0 0v510h510v-510zm30 406h79.213l48-48h82.787v114h-210zm210-78h-95.213l-48 48h-66.787v-44.057c44.917 11.03 88-23.126 88-68.943 0-1.487-9.453-1 122-1zm-152.036-66c.716 30.568-30.815 50.719-57.964 38.319v-38.319zm392.036 218h-210v-248h-240v-202h450z"/><path d="m375 184h-34.069l75.069-70.377v37.377h30v-87h-87v30h34.069l-75.069 70.377v-37.377h-30v87h87z"/></g></svg>